<?xml version="1.0" encoding="UTF-8" standalone="no"?>
<svg width="421px" height="191px" viewBox="0 0 421 191" version="1.1" xmlns="http://www.w3.org/2000/svg" xmlns:xlink="http://www.w3.org/1999/xlink">
    <!-- Generator: sketchtool 3.8.3 (29802) - http://www.bohemiancoding.com/sketch -->
    <title>E58EC40E-DA4D-4462-ABD7-7F0136A4CF3E</title>
    <desc>Created with sketchtool.</desc>
    <defs></defs>
    <g id="Page-1" stroke="none" stroke-width="1" fill="none" fill-rule="evenodd">
        <g id="invite" transform="translate(-515.000000, -794.000000)">
            <g id="invite-share" transform="translate(516.000000, 795.400024)">
                <path d="M41.5798277,142.486499 C41.5798277,164.584676 60.5361922,186.492658 82.6744228,186.492658 L110.449748,186.492658 C130.364467,186.492658 147.618884,169.450788 150.054735,152.186487 L150.054735,39.2714104 C149.916674,38.1939026 149.747933,37.1204244 149.541245,36.0550054 C148.391542,30.1129973 146.243924,24.4119578 142.556641,19.5450398 C137.094747,12.33694 129.227682,5.78485468 120.669504,2.66677126 C115.738863,0.869581805 110.084007,0 104.834452,0 C88.5771435,0 74.3116295,8.46452057 66.1878193,21.2116711 C65.0332726,21.0166398 63.8504678,20.911065 62.6402122,20.911065 C60.8098924,20.911065 58.8665401,21.1810463 57.0959661,21.6251053 C55.3245847,22.0691642 53.6508957,22.806576 52.0870097,23.7414369 C50.5433082,24.6625972 49.0827663,25.7481641 47.7643224,26.9723483 C41.7453396,32.5605599 41.4401517,41.3200451 41.6460324,48.960921 L41.5798277,142.486499 Z" id="Fill-1" fill="#FF7703"></path>
                <path d="M41.5798277,142.486499 C41.5798277,164.584676 60.5361922,186.492658 82.6744228,186.492658 L110.449748,186.492658 C130.364467,186.492658 147.618884,169.450788 150.054735,152.186487 L150.054735,39.2714104 C149.916674,38.1939026 149.747933,37.1204244 149.541245,36.0550054 C148.391542,30.1129973 146.243924,24.4119578 142.556641,19.5450398 C137.094747,12.33694 129.227682,5.78485468 120.669504,2.66677126 C115.738863,0.869581805 110.084007,0 104.834452,0 C88.5771435,0 74.3116295,8.46452057 66.1878193,21.2116711 C65.0332726,21.0166398 63.8504678,20.911065 62.6402122,20.911065 C60.8098924,20.911065 58.8665401,21.1810463 57.0959661,21.6251053 C55.3245847,22.0691642 53.6508957,22.806576 52.0870097,23.7414369 C50.5433082,24.6625972 49.0827663,25.7481641 47.7643224,26.9723483 C41.7453396,32.5605599 41.4401517,41.3200451 41.6460324,48.960921 L41.5798277,142.486499 L41.5798277,142.486499 Z" id="Stroke-3" stroke="#4D4D64" stroke-width="2" stroke-linecap="round" stroke-linejoin="round"></path>
                <path d="M209.625872,178.225344 C211.205905,176.647364 209.877773,174.378714 207.873867,174.118404 C208.095896,173.730759 208.224268,173.385022 208.224268,172.870042 C208.224268,171.230006 206.902595,170.088831 205.216795,170.088831 L186.862733,170.088831 C186.396877,170.088831 185.750977,169.763241 185.460322,169.249068 C185.063901,168.549534 185.784887,167.588884 186.000456,167.347916 C186.707717,166.658053 187.41417,165.931924 188.119816,165.241255 L188.845647,164.513514 C189.609424,163.766431 190.302152,162.353663 190.147135,161.119002 C190.036525,160.245391 189.514961,159.452371 188.713237,158.955121 C187.582104,158.249946 185.962509,158.46029 185.03322,159.42497 L175.261557,169.006488 C175.120267,169.143493 174.979783,169.283722 174.837685,169.423146 C174.72546,169.534362 174.613235,169.646384 174.501817,169.758406 C174.453375,169.807567 174.406547,169.858339 174.358104,169.91153 C174.299973,169.976003 174.241842,170.042894 174.17483,170.099308 L144.980139,170.222613 L145.327311,153.601431 C145.327311,122.194135 117.65533,121.933824 117.65533,121.933824 C108.770972,121.933824 106.180105,116.092556 105.424402,112.062983 L85.7656206,112.062983 C85.1051876,116.092556 82.8518031,121.223008 75.1825452,121.865322 L75.0856602,121.958002 C75.0856602,121.992656 73.9755191,122.057935 73.491094,122.057935 C73.491094,122.057935 45.2127743,122.194135 45.2127743,153.601431 L45.2127743,187.818951 L144.605517,188.24528 L144.616013,187.818951 L173.585446,187.818951 L201.203333,187.818951 C202.051884,187.818951 202.989247,187.560253 203.601237,186.939698 C204.486121,186.04191 204.144601,184.595293 203.807118,183.789378 L205.240209,183.789378 C207.751146,183.789378 208.855636,180.855044 207.58079,178.895059 C207.745495,179.148116 209.216533,178.633943 209.625872,178.225344" id="Fill-5" fill="#FCD8B6"></path>
                <path d="M127.534536,187.557915 L201.203494,187.557915 C202.052046,187.557915 202.989408,187.336289 203.601399,186.714929 C204.486282,185.817946 204.177865,184.880667 203.840382,183.818472 C203.840382,183.818472 205.236334,183.602487 205.240371,183.602487 C207.750501,183.602487 208.951068,180.942969 207.676222,178.982985 C207.840927,179.236042 209.216694,178.634024 209.626033,178.225425 C211.206067,176.647444 209.877127,174.377989 207.874029,174.118484 C208.096057,173.730839 208.223622,173.254544 208.223622,172.739565 C208.223622,171.099528 206.902756,169.827795 205.216957,169.827795 L186.862087,169.827795 C186.397039,169.827795 185.750331,169.632764 185.460483,169.11859 C185.064062,168.419057 185.784241,167.523686 186.000617,167.282717 C186.707878,166.592854 187.414332,165.898962 188.119978,165.208293 L188.845001,164.497476 C189.609585,163.749588 190.302313,162.345685 190.147297,161.111829 C190.036687,160.238218 189.515122,159.448422 188.712591,158.951172 C187.582266,158.245997 185.962671,158.457953 185.033382,159.422632 L175.261719,169.004956 C175.119621,169.142768 174.979945,169.282997 174.837847,169.42242 C174.725621,169.533636 174.613396,169.646464 174.501979,169.758487 C174.452729,169.807647 174.406708,169.85842 174.358266,169.91161 C174.300135,169.976084 174.242004,170.042974 174.174992,170.099388 L145.252386,170.099388" id="Stroke-7" stroke="#4D4D64" stroke-width="2" stroke-linecap="round" stroke-linejoin="round"></path>
                <path d="M277.377577,187.819193 L377.492114,187.819193 L377.492114,153.601673 C377.492114,122.193571 349.214601,122.098473 349.214601,122.098473 C348.729369,122.098473 347.619228,122.075101 347.619228,122.039641 L347.522343,122.02997 C339.853085,121.38685 337.5997,115.806698 336.939267,112.392038 L317.281294,112.392038 C316.524783,116.021071 313.933916,122.098473 305.049558,122.098473 C305.049558,122.098473 277.377577,122.193571 277.377577,153.601673 L277.377577,187.79421 L277.377577,187.819193 Z" id="Fill-9" fill="#F9C07D"></path>
                <path d="M295.415794,123.730853 C300.448972,121.876443 304.355054,121.824865 304.393808,121.824865 L304.619873,121.820029 C304.795073,121.814388 305.05747,121.806329 305.579035,121.802299 C305.662194,121.822447 306.194255,121.843401 306.270148,121.919963 C306.346849,121.995719 306.793327,122.098876 306.793327,122.205257 L306.793327,132.944874 C306.793327,133.313177 306.874872,134.897605 306.894249,135.261878 C307.468293,146.52937 316.558531,155.107524 327.986929,155.107524 C339.202986,155.107524 348.606486,146.44636 349.50671,135.472222 L349.554345,135.472222 L349.554345,134.871816 C349.572914,134.500289 349.584218,134.126345 349.584218,133.750788 L349.584218,124.281292 L349.554345,124.281292 L349.554345,122.689611 C351.584086,122.700894 354.567338,122.916073 357.624061,123.950867 C357.750011,123.909766 358.283686,123.853352 358.409637,123.853352 C358.634087,123.853352 359.272721,124.058054 359.272721,124.281292 L359.272721,187.948542 L296.297448,187.948542 C295.490073,187.948542 296.297448,187.768017 296.297448,187.545585 L296.297448,124.535155 C295.490073,124.481965 295.608757,124.392509 295.565966,124.19506 C295.522368,123.998416 295.227676,123.800161 295.415794,123.730853" id="Fill-11" fill="#13BFAE"></path>
                <path d="M343.941875,182.177791 L359.282006,182.177791" id="Stroke-13" stroke="#009B88" stroke-width="2" stroke-linecap="round" stroke-linejoin="round"></path>
                <path d="M352.823004,178.148218 L359.282006,178.148218" id="Stroke-15" stroke="#009B88" stroke-width="2" stroke-linecap="round" stroke-linejoin="round"></path>
                <path d="M295.499358,182.177791 L304.380486,182.177791" id="Stroke-17" stroke="#009B88" stroke-width="2" stroke-linecap="round" stroke-linejoin="round"></path>
                <path d="M295.499358,178.954133 L310.839488,178.954133" id="Stroke-19" stroke="#009B88" stroke-width="2" stroke-linecap="round" stroke-linejoin="round"></path>
                <path d="M359.282006,187.819193 L359.282006,124.151943" id="Stroke-21" stroke="#4D4D64" stroke-width="2" stroke-linecap="round" stroke-linejoin="round"></path>
                <path d="M295.499358,187.819193 L295.499358,124.151943" id="Stroke-23" stroke="#4D4D64" stroke-width="2" stroke-linecap="round" stroke-linejoin="round"></path>
                <path d="M307.609987,122.540114 L307.609987,134.427354 C307.609987,145.999481 317.008643,155.381132 328.601745,155.381132 C340.194847,155.381132 349.593502,145.999481 349.593502,134.427354 L349.593502,122.540114" id="Stroke-25" stroke="#4D4D64" stroke-width="2" stroke-linecap="round" stroke-linejoin="round"></path>
                <path d="M295.579772,187.819193 L377.492033,187.819193 L377.492033,153.601673 C377.492033,122.193571 349.21452,122.098473 349.21452,122.098473 C348.729288,122.098473 347.619147,122.075101 347.619147,122.039641 L347.522262,122.02997 C339.853004,121.38685 337.59962,115.806698 336.939994,112.392038 L317.281213,112.392038 C316.524702,116.021071 313.933835,122.098473 305.049477,122.098473 C305.049477,122.098473 277.377496,122.193571 277.377496,153.601673 L277.377496,170.085849" id="Stroke-27" stroke="#4D4D64" stroke-width="2" stroke-linecap="round" stroke-linejoin="round"></path>
                <g id="Group-32" transform="translate(375.429512, 187.819193)">
                    <path d="M25.0286341,0 L0,0" id="Fill-29" fill="#3FB4FF"></path>
                    <path d="M25.0286341,0 L0,0" id="Stroke-31" stroke="#4D4D64" stroke-width="2" stroke-linecap="round" stroke-linejoin="round"></path>
                </g>
                <g id="Group-36" transform="translate(25.836009, 187.819193)">
                    <path d="M25.0286341,0 L0,0" id="Fill-33" fill="#3FB4FF"></path>
                    <path d="M25.0286341,0 L0,0" id="Stroke-35" stroke="#4D4D64" stroke-width="2" stroke-linecap="round" stroke-linejoin="round"></path>
                </g>
                <path d="M136.538708,28.3897908 C131.076007,21.1816911 123.208134,14.6296057 114.650764,11.5115223 C109.719315,9.71433286 104.065266,8.84475106 98.8157119,8.84475106" id="Stroke-37" stroke="#CC5A05" stroke-width="2" stroke-linecap="round" stroke-linejoin="round"></path>
                <path d="M105.833983,115.962159 C105.183239,114.629176 104.813461,113.674973 104.598699,112.063144 L104.002856,112.063144 C101.62998,112.869059 99.1828254,112.927891 96.6783472,112.927891 C95.339719,112.927891 94.0180457,112.943203 92.7141346,112.809421 C92.4646556,112.831181 92.203066,112.723188 91.9229068,112.723188 C91.0687037,112.723188 89.9973167,112.869059 88.8387331,112.063144 L86.5643569,112.063144 C86.3818901,113.674973 86.0750875,114.322123 85.5720927,115.489087 C89.1156629,116.441678 92.8368556,116.957463 96.6783472,116.957463 C99.8214593,116.957463 102.882219,116.607696 105.833983,115.962159" id="Fill-39" fill="#DAB396"></path>
                <path d="M127.639414,123.601826 C122.606236,121.747416 118.700154,121.695838 118.6614,121.695838 L118.435335,121.691002 C118.260135,121.685361 117.997738,121.677302 117.476173,121.673272 C117.393014,121.69342 116.860953,121.714374 116.78506,121.790936 C116.708359,121.866692 116.261881,121.969849 116.261881,122.07623 L116.261881,132.815847 C116.261881,133.18415 116.180336,134.768578 116.160959,135.132851 C115.586915,146.400343 106.496677,154.978497 95.0682794,154.978497 C83.8522218,154.978497 74.4487218,146.317333 73.5484983,135.343195 L73.5008632,135.343195 L73.5008632,134.742789 C73.4822936,134.371262 73.4709903,133.997318 73.4709903,133.621761 L73.4709903,124.152265 L73.5008632,124.152265 L73.5008632,122.560584 C71.4711217,122.571867 68.48787,122.787046 65.4311471,123.821841 C65.3051966,123.780739 64.7715215,123.724325 64.645571,123.724325 C64.4211206,123.724325 63.7824868,123.929027 63.7824868,124.152265 L63.7824868,187.819515 L126.75776,187.819515 C127.565135,187.819515 126.75776,186.833076 126.75776,186.610643 L126.75776,124.406129 C127.565135,124.352938 127.446451,124.263482 127.489242,124.066033 C127.53284,123.869389 127.827532,123.671134 127.639414,123.601826" id="Fill-41" fill="#5E79FC"></path>
                <path d="M63.7826483,187.013278 L63.7826483,124.957858" id="Stroke-43" stroke="#4D4D64" stroke-width="2" stroke-linecap="round" stroke-linejoin="round"></path>
                <path d="M127.565297,187.013278 L127.565297,124.957858" id="Stroke-45" stroke="#4D4D64" stroke-width="2" stroke-linecap="round" stroke-linejoin="round"></path>
                <path d="M127.613416,187.589346 L45.2126935,187.589346 L45.2126935,153.472565 C45.2126935,122.157143 73.4910132,122.062045 73.4910132,122.062045 C73.9754384,122.062045 75.0855794,122.038674 75.0855794,122.003214 L75.1832718,121.993543 C86.321014,121.061906 86.0368179,109.746059 86.0368179,109.746059 C89.2525937,112.690065 92.8478359,112.286302 94.4625865,111.701208 L94.4625865,111.082266 C94.4625865,111.082266 94.7645449,111.241837 95.2699618,111.433644 C95.7753787,111.241837 96.0773371,111.082266 96.0773371,111.082266 L96.0773371,111.701208 C98.499463,112.286302 101.893669,112.690065 105.109444,109.746059 C105.109444,109.746059 104.993182,122.062045 117.655249,122.062045 C117.655249,122.062045 145.32723,122.157143 145.32723,153.472565 L145.29332,169.580379" id="Stroke-47" stroke="#4D4D64" stroke-width="2" stroke-linecap="round" stroke-linejoin="round"></path>
                <path d="M57.9812531,41.2560555 L57.9812531,74.4943895 C57.9812531,95.8116354 75.322867,113.092861 96.6787509,113.092861 C118.034635,113.092861 135.375441,95.8116354 135.375441,74.4943895 L135.375441,41.2560555 L57.9812531,41.2560555 Z" id="Fill-49" fill="#FCD8B6"></path>
                <path d="M57.9812531,41.2560555 L57.9812531,74.4943895 C57.9812531,95.8116354 75.322867,113.092861 96.6787509,113.092861 C118.034635,113.092861 135.375441,95.8116354 135.375441,74.4943895 L135.375441,41.2560555 L57.9812531,41.2560555 L57.9812531,41.2560555 Z" id="Stroke-51" stroke="#4D4D64" stroke-width="2" stroke-linecap="round" stroke-linejoin="round"></path>
                <path d="M114.51795,70.4932655 C117.130617,67.8055405 121.584099,67.8055405 124.196765,70.4932655" id="Stroke-53" stroke="#4D4D64" stroke-width="4" stroke-linecap="round" stroke-linejoin="round"></path>
                <path d="M127.928777,70.8269948 C127.928777,70.8269948 121.470582,61.4251956 111.646439,67.7379243" id="Stroke-55" stroke="#4D4D64" stroke-width="2" stroke-linecap="round" stroke-linejoin="round"></path>
                <path d="M53.2867694,36.1191562 L53.2867694,62.6079558 C54.90152,62.7514085 55.658838,62.8344177 56.8392207,62.8344177 C68.2458189,62.8344177 78.0707688,55.9261182 82.2739646,46.0730068 C86.6119921,61.7818933 101.057551,73.3233957 118.173907,73.3233957 C125.133482,73.3233957 131.602173,71.4109604 137.2538,68.0905925 L137.2538,36.1191562 L53.2867694,36.1191562 Z" id="Fill-57" fill="#FF7703"></path>
                <path d="M53.4326621,62.6081169 C55.0474127,62.7515697 55.7328744,62.8345789 56.9124497,62.8345789 C68.3190478,62.8345789 78.1076659,55.9262794 82.3108617,46.0723621 C86.6488891,61.7820545 101.075878,73.3235569 118.192235,73.3235569 C125.152617,73.3235569 131.601931,71.4111216 137.253558,68.0907537" id="Stroke-59" stroke="#4D4D64" stroke-width="2" stroke-linecap="round" stroke-linejoin="round"></path>
                <path d="M50.203161,51.3253132 C51.8179116,51.468766 52.5033732,51.5517752 53.6829485,51.5517752 C65.0895466,51.5517752 74.8781647,44.6434756 79.0813605,34.7895583" id="Stroke-61" stroke="#CC5A05" stroke-width="2" stroke-linecap="round" stroke-linejoin="round"></path>
                <path d="M66.3987057,27.1431216 C58.465436,26.9497021 51.5260454,32.1526865 48.4152284,39.740372" id="Stroke-63" stroke="#FF994D" stroke-width="2" stroke-linecap="round" stroke-linejoin="round"></path>
                <path d="M114.657545,26.1892412 C113.582122,24.9771457 113.142102,24.4476598 112.284669,23.6393275 C103.993733,15.8187327 92.1261231,14.1295358 82.2906773,18.4105539" id="Stroke-65" stroke="#FF994D" stroke-width="2" stroke-linecap="round" stroke-linejoin="round"></path>
                <path d="M87.962085,32.372137 C92.3001125,48.0810235 106.727102,59.6225259 123.843458,59.6225259 C130.80384,59.6225259 137.253962,57.7100906 142.905589,54.3897227" id="Stroke-67" stroke="#CC5A05" stroke-width="2" stroke-linecap="round" stroke-linejoin="round"></path>
                <path d="M87.774451,32.3004912 C94.6000018,40.6151117 104.970737,45.922059 116.577565,45.922059" id="Stroke-69" stroke="#CC5A05" stroke-width="2" stroke-linecap="round" stroke-linejoin="round"></path>
                <path d="M94.4629094,147.523465 L94.4629094,154.776696" id="Stroke-71" stroke="#DAB396" stroke-width="2" stroke-linecap="round" stroke-linejoin="round"></path>
                <path d="M115.454667,122.540114 L115.454667,134.427354 C115.454667,145.999481 106.056011,155.381132 94.4629094,155.381132 C82.8698076,155.381132 73.4711518,145.999481 73.4711518,134.427354 L73.4711518,122.540114" id="Stroke-73" stroke="#4D4D64" stroke-width="2" stroke-linecap="round" stroke-linejoin="round"></path>
                <path d="M99.4759026,74.4897958 C100.43022,77.4152656 98.8259655,80.5583324 95.8960006,81.5101175" id="Stroke-75" stroke="#4D4D64" stroke-width="2" stroke-linecap="round" stroke-linejoin="round"></path>
                <path d="M95.3759702,89.1875013 C91.0226026,89.1875013 87.4927578,85.6648488 87.4927578,81.3185516" id="Stroke-77" stroke="#4D4D64" stroke-width="2" stroke-linecap="round" stroke-linejoin="round"></path>
                <path d="M68.9233682,76.2928684 C68.9233682,71.9465713 72.4524056,68.4239187 76.8065806,68.4239187" id="Stroke-79" stroke="#4D4D64" stroke-width="2" stroke-linecap="round" stroke-linejoin="round"></path>
                <path d="M79.5138714,77.1452843 C79.5138714,78.1679898 78.684697,78.99647 77.6593304,78.99647 C76.6363859,78.99647 75.8047893,78.1679898 75.8047893,77.1452843 C75.8047893,76.1225787 76.6363859,75.2940985 77.6593304,75.2940985 C78.684697,75.2940985 79.5138714,76.1225787 79.5138714,77.1452843" id="Fill-81" fill="#4D4D64"></path>
                <g id="Group-86" transform="translate(44.405641, 66.932010)">
                    <path d="M8.34341629,16.6550302 C3.88428254,16.6550302 0.269663348,13.0461448 0.269663348,8.59588464 C0.269663348,4.14562447 3.88428254,0.536739094 8.34341629,0.536739094" id="Fill-83" fill="#FCD8B6"></path>
                    <path d="M8.34341629,16.6550302 C3.88428254,16.6550302 0.269663348,13.0461448 0.269663348,8.59588464 C0.269663348,4.14562447 3.88428254,0.536739094 8.34341629,0.536739094" id="Stroke-85" stroke="#4D4D64" stroke-width="2" stroke-linecap="round" stroke-linejoin="round"></path>
                </g>
                <path d="M53.2867694,65.3201806 L53.2867694,108.033652" id="Stroke-87" stroke="#CC5A05" stroke-width="2" stroke-linecap="round" stroke-linejoin="round"></path>
                <path d="M61.3605224,121.734199 L61.3605224,97.5567628" id="Stroke-89" stroke="#CC5A05" stroke-width="2" stroke-linecap="round" stroke-linejoin="round"></path>
                <path d="M70.2416506,108.033652 L70.2416506,116.898712" id="Stroke-91" stroke="#CC5A05" stroke-width="2" stroke-linecap="round" stroke-linejoin="round"></path>
                <g id="Group-96" transform="translate(138.868551, 66.932010)">
                    <path d="M0,16.6550302 C4.45913375,16.6550302 8.07375294,13.0461448 8.07375294,8.59588464 C8.07375294,4.14562447 4.45913375,0.536739094 0,0.536739094" id="Fill-93" fill="#FCD8B6"></path>
                    <path d="M0,16.6550302 C4.45913375,16.6550302 8.07375294,13.0461448 8.07375294,8.59588464 C8.07375294,4.14562447 4.45913375,0.536739094 0,0.536739094" id="Stroke-95" stroke="#4D4D64" stroke-width="2" stroke-linecap="round" stroke-linejoin="round"></path>
                </g>
                <path d="M121.106294,108.033652 L121.106294,116.898712" id="Stroke-97" stroke="#CC5A05" stroke-width="2" stroke-linecap="round" stroke-linejoin="round"></path>
                <path d="M135.639049,95.1390191 L135.639049,121.734199" id="Stroke-99" stroke="#CC5A05" stroke-width="2" stroke-linecap="round" stroke-linejoin="round"></path>
                <path d="M46.0203918,87.0798736 L46.0203918,124.151943" id="Stroke-101" stroke="#FF994D" stroke-width="2" stroke-linecap="round" stroke-linejoin="round"></path>
                <path d="M54.90152,124.957858 L54.90152,113.675054" id="Stroke-103" stroke="#FF994D" stroke-width="2" stroke-linecap="round" stroke-linejoin="round"></path>
                <path d="M128.372672,106.421823 L128.372672,122.540114" id="Stroke-105" stroke="#FF994D" stroke-width="2" stroke-linecap="round" stroke-linejoin="round"></path>
                <path d="M142.905427,112.063225 L142.905427,131.405174" id="Stroke-107" stroke="#FF994D" stroke-width="2" stroke-linecap="round" stroke-linejoin="round"></path>
                <path d="M138.868551,65.3201806 L138.868551,95.9449337" id="Stroke-109" stroke="#CC5A05" stroke-width="2" stroke-linecap="round" stroke-linejoin="round"></path>
                <path d="M81.2586902,87.6457062 C81.2586902,91.6237004 78.0283816,94.8481646 74.0431772,94.8481646 C70.0587801,94.8481646 66.8284716,91.6237004 66.8284716,87.6457062 C66.8284716,83.6677119 70.0587801,80.4432478 74.0431772,80.4432478 C78.0283816,80.4432478 81.2586902,83.6677119 81.2586902,87.6457062" id="Fill-111" fill="#F9B2B1"></path>
                <path d="M125.664331,87.6457062 C125.664331,91.6237004 122.434023,94.8481646 118.448818,94.8481646 C114.464421,94.8481646 111.234113,91.6237004 111.234113,87.6457062 C111.234113,83.6677119 114.464421,80.4432478 118.448818,80.4432478 C122.434023,80.4432478 125.664331,83.6677119 125.664331,87.6457062" id="Fill-113" fill="#F9B2B1"></path>
                <path d="M134.580177,70.5113986 C129.029472,72.8985175 124.000331,74.129149 118.360814,74.129149 C102.012272,74.129149 87.3907056,63.6111582 82.2259258,48.304423 C77.6586038,57.1340229 68.6273037,62.924519 58.9388002,63.575698 L58.9388002,65.5163402 C68.6273037,64.6395052 76.7228558,59.1834636 81.3410425,50.9139744 C86.8093953,65.9104324 101.342958,76.1439354 117.553439,76.1439354 C123.485225,76.1439354 129.013324,74.8117587 134.580177,72.2022073 L134.580177,70.5113986 Z" id="Fill-115" fill="#DAB396"></path>
                <path d="M91.3800276,74.4929389 C91.3800276,74.7870977 91.1483109,75.0240366 90.8616927,75.0240366 C90.5758818,75.0240366 90.3441651,74.7870977 90.3441651,74.4929389 C90.3441651,74.2003919 90.5758818,73.9618412 90.8616927,73.9618412 C91.1483109,73.9618412 91.3800276,74.2003919 91.3800276,74.4929389" id="Fill-117" fill="#F9B2B1"></path>
                <path d="M95.0069189,74.1852407 C95.0069189,74.4785936 94.7752022,74.7155325 94.4877766,74.7155325 C94.2027731,74.7155325 93.9710564,74.4785936 93.9710564,74.1852407 C93.9710564,73.8918878 94.2027731,73.6533371 94.4877766,73.6533371 C94.7752022,73.6533371 95.0069189,73.8918878 95.0069189,74.1852407" id="Fill-119" fill="#F9B2B1"></path>
                <path d="M98.9342346,72.6340164 C98.9342346,72.9265634 98.7025178,73.1651141 98.4158996,73.1651141 C98.1300888,73.1651141 97.8983721,72.9265634 97.8983721,72.6340164 C97.8983721,72.3406635 98.1300888,72.1029187 98.4158996,72.1029187 C98.7025178,72.1029187 98.9342346,72.3406635 98.9342346,72.6340164" id="Fill-121" fill="#F9B2B1"></path>
                <path d="M87.1019074,76.8406486 C87.1019074,77.1348074 86.8693833,77.3725522 86.5827651,77.3725522 C86.2969542,77.3725522 86.0652375,77.1348074 86.0652375,76.8406486 C86.0652375,76.5472957 86.2969542,76.3103568 86.5827651,76.3103568 C86.8693833,76.3103568 87.1019074,76.5472957 87.1019074,76.8406486" id="Fill-123" fill="#F9B2B1"></path>
                <path d="M92.9679733,78.7090809 C92.9679733,79.0024338 92.7362566,79.2393727 92.448831,79.2393727 C92.1638276,79.2393727 91.9321108,79.0024338 91.9321108,78.7090809 C91.9321108,78.4149221 92.1638276,78.1771773 92.448831,78.1771773 C92.7362566,78.1771773 92.9679733,78.4149221 92.9679733,78.7090809" id="Fill-125" fill="#F9B2B1"></path>
                <path d="M84.1483671,79.4842901 C84.1483671,79.777643 83.9166504,80.0145819 83.6308395,80.0145819 C83.3442213,80.0145819 83.1125046,79.777643 83.1125046,79.4842901 C83.1125046,79.1901313 83.3442213,78.9523865 83.6308395,78.9523865 C83.9166504,78.9523865 84.1483671,79.1901313 84.1483671,79.4842901" id="Fill-127" fill="#F9B2B1"></path>
                <path d="M105.887593,79.6337872 C105.887593,79.9271401 105.655876,80.1648849 105.36845,80.1648849 C105.083447,80.1648849 104.85173,79.9271401 104.85173,79.6337872 C104.85173,79.3412403 105.083447,79.1026895 105.36845,79.1026895 C105.655876,79.1026895 105.887593,79.3412403 105.887593,79.6337872" id="Fill-129" fill="#F9B2B1"></path>
                <path d="M110.466945,77.0642093 C110.466945,77.3567563 110.234421,77.594501 109.947802,77.594501 C109.662799,77.594501 109.430275,77.3567563 109.430275,77.0642093 C109.430275,76.7700505 109.662799,76.5323057 109.947802,76.5323057 C110.234421,76.5323057 110.466945,76.7700505 110.466945,77.0642093" id="Fill-131" fill="#F9B2B1"></path>
                <path d="M104.466774,74.8534245 C104.466774,75.1459714 104.235057,75.3845222 103.948439,75.3845222 C103.662628,75.3845222 103.430911,75.1459714 103.430911,74.8534245 C103.430911,74.5600716 103.662628,74.3223268 103.948439,74.3223268 C104.235057,74.3223268 104.466774,74.5600716 104.466774,74.8534245" id="Fill-133" fill="#F9B2B1"></path>
                <path d="M113.238341,79.020728 C113.238341,79.3140809 113.006624,79.5510198 112.720006,79.5510198 C112.434195,79.5510198 112.202479,79.3140809 112.202479,79.020728 C112.202479,78.7273751 112.434195,78.4888244 112.720006,78.4888244 C113.006624,78.4888244 113.238341,78.7273751 113.238341,79.020728" id="Fill-135" fill="#F9B2B1"></path>
                <path d="M102.561126,77.5088323 C102.561126,77.8029911 102.328602,78.03993 102.042791,78.03993 C101.75698,78.03993 101.525263,77.8029911 101.525263,77.5088323 C101.525263,77.2162853 101.75698,76.9777346 102.042791,76.9777346 C102.328602,76.9777346 102.561126,77.2162853 102.561126,77.5088323" id="Fill-137" fill="#F9B2B1"></path>
                <path d="M119.075261,77.1452843 C119.075261,78.1679898 118.246086,78.99647 117.22072,78.99647 C116.197775,78.99647 115.366179,78.1679898 115.366179,77.1452843 C115.366179,76.1225787 116.197775,75.2940985 117.22072,75.2940985 C118.246086,75.2940985 119.075261,76.1225787 119.075261,77.1452843" id="Fill-139" fill="#4D4D64"></path>
                <path d="M128.200782,36.7621954 C128.200782,36.7621954 135.857929,39.7013658 135.564044,48.2287477" id="Stroke-141" stroke="#FF994D" stroke-width="2" stroke-linecap="round" stroke-linejoin="round"></path>
                <path d="M314.078436,119.616337 C313.137036,120.514125 311.976031,121.299892 310.544554,121.879345 C315.682691,124.225362 321.384375,125.543032 327.39044,125.543032 C333.184972,125.543032 338.696923,124.318042 343.693769,122.125149 C342.003125,121.555367 340.658845,120.71238 339.599569,119.722717 C335.666036,121.140321 331.420857,121.916417 326.986752,121.916417 C322.441229,121.916417 318.095128,121.103249 314.078436,119.616337" id="Fill-143" fill="#F8AA5C"></path>
                <path d="M371.883843,70.6058518 C371.883843,75.5042005 367.905097,79.4757474 362.99787,79.4757474 C358.089836,79.4757474 354.11109,75.5042005 354.11109,70.6058518 C354.11109,65.7075031 358.089836,61.7359562 362.99787,61.7359562 C367.905097,61.7359562 371.883843,65.7075031 371.883843,70.6058518" id="Fill-145" fill="#F9C07D"></path>
                <path d="M371.883843,70.6058518 C371.883843,75.5042005 367.905097,79.4757474 362.99787,79.4757474 C358.089836,79.4757474 354.11109,75.5042005 354.11109,70.6058518 C354.11109,65.7075031 358.089836,61.7359562 362.99787,61.7359562 C367.905097,61.7359562 371.883843,65.7075031 371.883843,70.6058518 L371.883843,70.6058518 Z" id="Stroke-147" stroke="#4D4D64" stroke-width="2" stroke-linecap="round" stroke-linejoin="round"></path>
                <path d="M300.796143,70.6058518 C300.796143,75.5042005 296.81982,79.4757474 291.910171,79.4757474 C287.002944,79.4757474 283.025006,75.5042005 283.025006,70.6058518 C283.025006,65.7075031 287.002944,61.7359562 291.910171,61.7359562 C296.81982,61.7359562 300.796143,65.7075031 300.796143,70.6058518" id="Fill-149" fill="#F9C07D"></path>
                <path d="M300.796143,70.6058518 C300.796143,75.5042005 296.81982,79.4757474 291.910171,79.4757474 C287.002944,79.4757474 283.025006,75.5042005 283.025006,70.6058518 C283.025006,65.7075031 287.002944,61.7359562 291.910171,61.7359562 C296.81982,61.7359562 300.796143,65.7075031 300.796143,70.6058518 L300.796143,70.6058518 Z" id="Stroke-151" stroke="#4D4D64" stroke-width="2" stroke-linecap="round" stroke-linejoin="round"></path>
                <path d="M290.655106,47.2792191 L290.655106,84.6962201 C290.655106,105.252683 307.199841,121.916578 327.79437,121.916578 C348.388899,121.916578 364.933633,105.252683 364.933633,84.6962201 L364.933633,38.3327617 L313.607978,44.3513316 C313.612822,44.2280266 313.607171,44.1055276 313.607171,43.979805 C313.607171,37.8750022 308.638583,32.9266868 302.523523,32.9266868 C296.40927,32.9266868 291.415654,37.9975012 291.415654,44.102304 L290.655106,47.2792191 Z" id="Fill-153" fill="#CF9C5E"></path>
                <path d="M290.655106,47.2792191 L290.655106,84.6962201 C290.655106,105.252683 307.199841,121.916578 327.79437,121.916578 C348.388899,121.916578 364.933633,105.252683 364.933633,84.6962201 L364.933633,38.3327617 L313.607978,44.3513316 C313.612822,44.2280266 313.607171,44.1055276 313.607171,43.979805 C313.607171,37.8750022 308.638583,32.9266868 302.523523,32.9266868 C296.40927,32.9266868 291.415654,37.9975012 291.415654,44.102304 L290.655106,47.2792191 L290.655106,47.2792191 Z" id="Stroke-155" stroke="#4D4D64" stroke-width="2"></path>
                <path d="M343.739224,89.4976172 L353.991276,89.4976172 C357.868292,89.4976172 360.089381,86.169996 360.089381,82.3008003 L360.089381,49.5492387 C360.089381,45.679237 357.868292,43.5604876 353.991276,43.5604876 L303.104833,43.5604876 C299.228624,43.5604876 294.691982,45.679237 294.691982,49.5492387 L294.691982,82.3008003 C294.691982,86.169996 299.228624,89.4976172 303.104833,89.4976172 L314.379022,89.4976172 L343.739224,89.4976172 Z" id="Fill-157" fill="#F9C07D"></path>
                <path d="M305.751571,70.9615825 L302.475242,70.9615825 C300.666721,70.9615825 299.19972,72.3799921 299.19972,74.1852407 C299.19972,75.9921011 300.666721,77.4088989 302.475242,77.4088989 L305.751571,77.4088989 C307.560899,77.4088989 309.0279,75.9921011 309.0279,74.1852407 C309.0279,72.3799921 307.560899,70.9615825 305.751571,70.9615825" id="Fill-159" fill="#F8AA5C"></path>
                <path d="M352.547043,70.9615825 L349.272329,70.9615825 C347.463001,70.9615825 345.996807,72.3799921 345.996807,74.1852407 C345.996807,75.9921011 347.463001,77.4088989 349.272329,77.4088989 L352.547043,77.4088989 C354.356371,77.4088989 355.824179,75.9921011 355.824179,74.1852407 C355.824179,72.3799921 354.356371,70.9615825 352.547043,70.9615825" id="Fill-161" fill="#F8AA5C"></path>
                <path d="M330.112425,61.1520711 C332.638702,62.209431 334.413313,64.7037366 334.413313,67.6106704 C334.413313,71.4766425 331.27343,74.6108442 327.402066,74.6108442 C323.529087,74.6108442 320.389204,71.4766425 320.389204,67.6106704" id="Stroke-163" stroke="#4D4D64" stroke-width="2" stroke-linecap="round" stroke-linejoin="round"></path>
                <path d="M347.223452,68.7768287 C347.223452,69.9784473 346.246528,70.9536039 345.042732,70.9536039 C343.839742,70.9536039 342.863626,69.9784473 342.863626,68.7768287 C342.863626,67.5752101 343.839742,66.6000535 345.042732,66.6000535 C346.246528,66.6000535 347.223452,67.5752101 347.223452,68.7768287" id="Fill-165" fill="#4D4D64"></path>
                <path d="M312.126202,68.7768287 C312.126202,69.9784473 311.150086,70.9536039 309.945482,70.9536039 C308.742492,70.9536039 307.766376,69.9784473 307.766376,68.7768287 C307.766376,67.5752101 308.742492,66.6000535 309.945482,66.6000535 C311.150086,66.6000535 312.126202,67.5752101 312.126202,68.7768287" id="Fill-167" fill="#4D4D64"></path>
                <path d="M349.394807,62.9024369 L338.631687,62.9024369 C336.693179,62.9024369 335.122027,62.0159309 335.122027,60.081736 C335.122027,58.1475411 336.693179,57.261035 338.631687,57.261035 L349.394807,57.261035 C351.334123,57.261035 352.905275,58.1475411 352.905275,60.081736 C352.905275,62.0159309 351.334123,62.9024369 349.394807,62.9024369" id="Fill-169" fill="#4D4D64"></path>
                <path d="M316.170184,62.9024369 L305.407064,62.9024369 C303.467748,62.9024369 301.896596,62.0159309 301.896596,60.081736 C301.896596,58.1475411 303.467748,57.261035 305.407064,57.261035 L316.170184,57.261035 C318.109499,57.261035 319.680651,58.1475411 319.680651,60.081736 C319.680651,62.0159309 318.109499,62.9024369 316.170184,62.9024369" id="Fill-171" fill="#4D4D64"></path>
                <path d="M301.515999,43.9445865 C305.084598,44.9189372 310.678901,46.7733466 316.731794,49.4425356 C328.106097,54.4577419 345.164322,57.0906647 358.927649,49.2620107 C358.994661,49.2241327 359.059251,49.2104322 359.125456,49.1709424 C359.08428,48.0410502 358.620039,46.6121637 358.199396,45.8417094 C344.523266,53.3351029 327.971265,51.0205163 316.731794,46.0649477 C314.796515,45.2114842 312.908065,44.3660798 311.118114,43.5601652 L303.104914,43.5601652 C302.578505,43.5601652 302.045637,43.8486827 301.515999,43.9445865" id="Fill-173" fill="#F8AA5C"></path>
                <path d="M343.739224,89.4976172 L353.991276,89.4976172 C357.868292,89.4976172 360.089381,86.169996 360.089381,82.3008003 L360.089381,49.5492387 C360.089381,45.679237 357.868292,43.5604876 353.991276,43.5604876 L303.104833,43.5604876 C299.228624,43.5604876 294.691982,45.679237 294.691982,49.5492387 L294.691982,82.3008003 C294.691982,86.169996 299.228624,89.4976172 303.104833,89.4976172 L314.379022,89.4976172 L343.739224,89.4976172 L343.739224,89.4976172 Z" id="Stroke-175" stroke="#4D4D64" stroke-width="2" stroke-linecap="round" stroke-linejoin="round"></path>
                <g id="Group-180" transform="translate(289.847731, 11.323905)">
                    <path d="M0.807375294,40.2957277 L0.807375294,37.9198916 C0.807375294,37.9198916 -0.987419985,3.99975394 27.9287262,3.99975394 C33.7975372,3.73621988 39.6857252,3.41707771 45.5593805,3.19706304 C51.4007407,2.97704837 57.2501747,2.73849766 63.0891129,2.45965122 C67.0468666,2.26784356 71.0466038,1.56589198 74.9373453,0.837345223 C78.0812647,0.248221683 82.7107547,-0.311083018 83.8071703,3.60727355 C84.8640246,7.39104238 83.2839911,12.214441 82.0761577,15.8273559 C80.6955459,19.9520266 78.6109029,23.8655477 75.8561384,27.2431356 C73.6552334,29.9413375 70.8980467,32.3034731 67.8623156,34.030548 C56.43957,40.5262193 42.7359891,39.1513291 30.5147493,36.0251865 C22.9593312,34.0917975 14.7999965,31.5531667 8.67847704,26.4968587" id="Fill-177" fill="#CF9C5E"></path>
                    <path d="M0.807375294,40.2957277 L0.807375294,37.9198916 C0.807375294,37.9198916 -0.987419985,3.99975394 27.9287262,3.99975394 C33.7975372,3.73621988 39.6857252,3.41707771 45.5593805,3.19706304 C51.4007407,2.97704837 57.2501747,2.73849766 63.0891129,2.45965122 C67.0468666,2.26784356 71.0466038,1.56589198 74.9373453,0.837345223 C78.0812647,0.248221683 82.7107547,-0.311083018 83.8071703,3.60727355 C84.8640246,7.39104238 83.2839911,12.214441 82.0761577,15.8273559 C80.6955459,19.9520266 78.6109029,23.8655477 75.8561384,27.2431356 C73.6552334,29.9413375 70.8980467,32.3034731 67.8623156,34.030548 C56.43957,40.5262193 42.7359891,39.1513291 30.5147493,36.0251865 C22.9593312,34.0917975 14.7999965,31.5531667 8.67847704,26.4968587" id="Stroke-179" stroke="#4D4D64" stroke-width="2" stroke-linecap="round" stroke-linejoin="round"></path>
                </g>
                <path d="M204.265949,183.78962 L193.770071,183.78962" id="Stroke-181" stroke="#4D4D64" stroke-width="2" stroke-linecap="round" stroke-linejoin="round"></path>
                <path d="M207.495451,178.954133 L194.577446,178.954133" id="Stroke-183" stroke="#4D4D64" stroke-width="2" stroke-linecap="round" stroke-linejoin="round"></path>
                <path d="M207.495451,174.118646 L192.962695,174.118646" id="Stroke-185" stroke="#4D4D64" stroke-width="2" stroke-linecap="round" stroke-linejoin="round"></path>
                <g id="Group-190" transform="translate(189.733194, 128.181516)">
                    <polyline id="Fill-187" fill="#E5E5E5" points="43.860017 22.9796058 17.2537715 0.440593487 0.311808339 30.8928809"></polyline>
                    <polyline id="Stroke-189" stroke="#4D4D64" stroke-width="2" stroke-linecap="round" stroke-linejoin="round" points="43.860017 22.9796058 17.2537715 0.440593487 0.311808339 30.8928809"></polyline>
                </g>
                <path d="M222.256047,127.075721 C222.176117,126.637303 221.756282,126.34798 221.31707,126.426959 L191.927802,131.767755 C191.48859,131.847541 191.197127,132.266616 191.277865,132.705034 L199.95392,180.27817 C200.03385,180.716587 200.453685,181.006717 200.892897,180.926125 L230.282165,175.586135 C230.721377,175.50635 231.012032,175.087274 230.932102,174.648857 L222.256047,127.075721 Z" id="Fill-191" fill="#FF7703"></path>
                <path d="M222.256047,127.075721 C222.176117,126.637303 221.756282,126.34798 221.31707,126.426959 L191.927802,131.767755 C191.48859,131.847541 191.197127,132.266616 191.277865,132.705034 L199.95392,180.27817 C200.03385,180.716587 200.453685,181.006717 200.892897,180.926125 L230.282165,175.586135 C230.721377,175.50635 231.012032,175.087274 230.932102,174.648857 L222.256047,127.075721 L222.256047,127.075721 Z" id="Stroke-193" stroke="#4D4D64" stroke-width="2" stroke-linecap="round" stroke-linejoin="round"></path>
                <path d="M232.768477,150.969072 L190.6687,158.618813 C190.230295,158.699405 189.93964,159.117674 190.01957,159.556092 L194.936486,186.513934 C195.015609,186.952351 195.436251,187.243286 195.875463,187.162695 L237.973626,179.512954 C238.412838,179.433168 238.7043,179.014093 238.623563,178.575675 L233.707455,151.617834 C233.626717,151.179416 233.207689,150.889287 232.768477,150.969072" id="Fill-195" fill="#E5E5E5"></path>
                <path d="M232.768477,150.969072 L190.6687,158.618813 C190.230295,158.699405 189.93964,159.117674 190.01957,159.556092 L194.936486,186.513934 C195.015609,186.952351 195.436251,187.243286 195.875463,187.162695 L237.973626,179.512954 C238.412838,179.433168 238.7043,179.014093 238.623563,178.575675 L233.707455,151.617834 C233.626717,151.179416 233.207689,150.889287 232.768477,150.969072 L232.768477,150.969072 Z" id="Stroke-197" stroke="#4D4D64" stroke-width="2" stroke-linecap="round" stroke-linejoin="round"></path>
                <polyline id="Stroke-199" stroke="#4D4D64" points="194.913314 186.518205 213.970601 167.287472 238.59474 178.580753"></polyline>
                <polyline id="Stroke-201" stroke="#4D4D64" points="190.225209 159.14709 211.433343 169.727942 195.231743 186.598152"></polyline>
                <polyline id="Stroke-203" stroke="#4D4D64" points="233.509648 151.281525 217.398474 168.644149 238.516182 178.732587"></polyline>
                <path d="M208.050925,133.449054 C207.623016,133.449054 207.211255,133.680351 206.976308,134.054296 C206.534674,134.761889 206.57585,135.9216 206.639633,136.550213 C206.693727,137.023285 206.774465,137.594678 206.853587,138.1427 C206.870542,138.265199 206.887497,138.385281 206.904452,138.50375 C207.82163,137.958146 208.582178,137.020061 208.948726,135.950613 C209.156222,135.371966 209.176406,134.648255 209.002013,134.145364 C208.844575,133.702917 208.498211,133.449054 208.050925,133.449054 M206.49915,152.645939 C205.709537,152.645939 205.175861,152.33405 205.0378,151.788446 C204.467793,147.906355 204.113356,145.482164 203.572414,141.716126 C203.418205,141.724185 203.263189,141.728214 203.106559,141.728214 C202.108643,141.728214 200.689277,141.548495 199.592861,140.688584 C198.769338,140.0366 198.351925,139.109798 198.477069,138.208785 C198.588486,137.395618 199.140731,136.726709 199.991705,136.372106 C200.063561,136.335034 200.170942,136.310051 200.278323,136.310051 C200.534261,136.310051 200.770014,136.451086 200.895158,136.677548 C201.499074,137.663181 202.380728,138.718929 203.205866,139.047742 C203.129165,138.533569 203.037932,137.922686 202.978186,137.553577 C202.625363,135.228513 203.411746,133.742407 204.13354,132.904256 C205.116116,131.764693 206.636403,131.083695 208.200289,131.083695 C210.194506,131.083695 212.342932,132.265971 212.644083,134.908565 C213.000135,138.061303 210.169478,140.16877 207.287955,141.139897 C207.413906,142.01109 207.544701,142.907267 207.674688,143.797803 C208.247924,141.962735 209.307201,140.057553 211.700261,139.804496 C211.814908,139.794825 211.915023,139.791602 212.013523,139.791602 C213.613741,139.791602 214.821574,140.818337 215.244639,142.538158 C215.373819,143.023319 215.451327,143.518956 215.526413,144.111304 L215.94544,146.986001 C216.051207,147.74356 216.171506,148.154577 216.500107,148.154577 C217.171036,148.089298 217.841158,147.546917 218.407935,146.662829 C218.568603,146.418637 218.850377,146.28002 219.183823,146.28002 C219.589933,146.28002 220.013805,146.479081 220.237448,146.774851 C220.404574,146.994866 220.457054,147.255982 220.38439,147.509039 C219.887854,149.181312 218.545996,151.239618 216.391919,151.556342 C216.167469,151.586967 215.954322,151.601473 215.749248,151.601473 C213.907625,151.601473 212.635202,150.40469 212.344547,148.399575 L211.656663,143.70754 C211.600147,143.307001 211.392651,143.307001 211.304647,143.307001 C211.273967,143.307001 211.242479,143.309419 211.20857,143.314254 C209.423463,143.573759 208.450576,148.979027 208.591866,151.194487 C208.652419,152.03425 207.762692,152.518604 206.853587,152.625791 C206.749436,152.638685 206.627522,152.645939 206.49915,152.645939" id="Fill-205" fill="#FFFFFF"></path>
                <path d="M207.73516,141.409878 C208.024201,141.304303 208.311626,141.187446 208.595015,141.058499 C208.303553,141.418743 208.059725,141.816059 207.854652,142.231911 C207.814283,141.956288 207.774722,141.682277 207.73516,141.409878 M207.211174,137.793739 C207.146584,137.341621 207.084416,136.889503 207.04001,136.499441 C206.94151,135.526702 207.04324,134.709504 207.319362,134.266251 C207.477608,134.014806 207.765033,133.851205 208.051651,133.851205 C208.328581,133.851205 208.520737,133.997076 208.622466,134.28237 C208.764564,134.693386 208.744379,135.323611 208.570794,135.809578 C208.302745,136.589703 207.815091,137.288431 207.211174,137.793739 M208.200209,130.680738 C206.520061,130.680738 204.885126,131.41412 203.827464,132.641528 C203.050769,133.543346 202.203025,135.138251 202.578454,137.609991 C202.605098,137.780039 202.639008,137.998442 202.675339,138.233769 C202.203832,137.8292 201.693571,137.207839 201.22933,136.451086 C201.05413,136.127914 200.68193,135.907093 200.278242,135.907093 C200.119997,135.907093 199.961751,135.941748 199.818038,136.007833 C198.841922,136.421267 198.208132,137.202198 198.07653,138.153983 C197.932817,139.197643 198.405131,140.263062 199.341687,141.003697 C200.283086,141.741915 201.584575,142.131977 203.106478,142.131977 C203.145232,142.131977 203.184793,142.131977 203.224355,142.131172 C203.736231,145.695732 204.085824,148.086074 204.629995,151.80537 C204.634032,151.833577 204.639683,151.860978 204.646143,151.887573 C204.831031,152.614508 205.524567,153.048896 206.499069,153.048896 C206.645204,153.048896 206.784072,153.040031 206.903564,153.024719 C207.999979,152.896578 209.073789,152.270383 208.994666,151.163056 C208.838035,148.713076 209.933643,143.953344 211.24805,143.7156 C211.25128,143.7293 211.253702,143.743807 211.256124,143.761537 L211.738127,147.050474 L211.945623,148.458407 C212.262114,150.645659 213.720233,152.004431 215.749168,152.004431 C215.974425,152.004431 216.207757,151.988312 216.444318,151.95527 C218.377982,151.671588 220.07347,149.973526 220.771042,147.628315 C220.878423,147.246311 220.800915,146.850607 220.55951,146.531465 C220.259166,146.134149 219.718224,145.877062 219.183742,145.877062 C218.712235,145.877062 218.306932,146.081765 218.072794,146.437173 C217.577873,147.210045 217.004636,147.696817 216.533936,147.748396 C216.437051,147.587213 216.374076,147.133483 216.345818,146.930393 L216.31756,146.736973 L216.08988,145.173499 L215.925175,144.046024 C215.859778,143.534269 215.777426,142.970934 215.632906,142.427748 C215.173509,140.558832 213.785631,139.388644 212.013442,139.388644 C211.905254,139.388644 211.793836,139.392674 211.680803,139.401539 C211.466849,139.424105 211.26339,139.457953 211.068006,139.503084 C212.403404,138.33209 213.262452,136.780705 213.046075,134.863434 C212.715859,131.97423 210.37447,130.680738 208.200209,130.680738 M206.581421,139.117857 C207.855459,138.581924 208.876789,137.402871 209.331341,136.081171 C209.546911,135.477541 209.603427,134.647449 209.383013,134.013194 C209.14726,133.349121 208.609548,133.045291 208.051651,133.045291 C207.513132,133.045291 206.956851,133.328167 206.634708,133.839117 C206.168045,134.587005 206.15109,135.737851 206.238287,136.591315 C206.324676,137.351292 206.478884,138.347403 206.581421,139.117857 M208.200209,131.486652 C210.140331,131.486652 211.97711,132.619768 212.243544,134.953696 C212.60767,138.183802 209.307927,140.10349 206.839781,140.86105 C207.077957,142.501892 207.33228,144.248309 207.572878,145.885122 C208.087176,143.467378 208.831576,140.513701 211.742971,140.205036 C211.835012,140.197782 211.925438,140.194559 212.013442,140.194559 C213.539381,140.194559 214.508232,141.233383 214.852174,142.634868 C214.984583,143.1297 215.059669,143.643873 215.125874,144.162882 C215.335791,145.599828 215.31157,145.423332 215.519873,146.859472 C215.614336,147.474385 215.681348,148.557534 216.500027,148.557534 C216.534744,148.557534 216.571076,148.555116 216.609022,148.551087 C217.436582,148.467272 218.191478,147.748396 218.748567,146.87962 C218.838185,146.742615 219.00289,146.682977 219.183742,146.682977 C219.601962,146.682977 220.109802,146.999701 219.996769,147.399435 C219.460672,149.20146 218.114777,150.896298 216.3329,151.157415 C216.131056,151.185622 215.936479,151.198516 215.749168,151.198516 C214.070634,151.198516 212.999247,150.097637 212.744117,148.342355 C212.435699,146.241336 212.36465,145.760205 212.056233,143.648709 C211.991643,143.199008 211.738127,142.904044 211.304567,142.904044 C211.255317,142.904044 211.204452,142.907267 211.151165,142.915326 C208.8889,143.244945 208.062955,149.244979 208.188905,151.220276 C208.23654,151.879514 207.315325,152.165614 206.806679,152.225251 C206.715445,152.236534 206.610487,152.242981 206.499069,152.242981 C206.064701,152.242981 205.541522,152.131765 205.429297,151.689318 C204.848794,147.722607 204.489512,145.267791 203.91789,141.286573 C203.654686,141.311556 203.381793,141.326063 203.106478,141.326063 C201.955161,141.326063 200.745712,141.080259 199.843067,140.37186 C198.489906,139.301606 198.478603,137.439943 200.147447,136.743633 C200.189431,136.722679 200.233837,136.713008 200.278242,136.713008 C200.383201,136.713008 200.48493,136.769422 200.540639,136.870967 C201.159089,137.880778 202.421824,139.545798 203.689403,139.553857 C203.61028,139.021953 203.460916,138.012142 203.376949,137.48991 C202.777876,133.544958 205.583505,131.486652 208.200209,131.486652" id="Fill-207" fill="#4D4D64"></path>
                <g id="Group-212" transform="translate(139.675926, 170.089073)">
                    <path d="M0,0 L7.26637765,0" id="Fill-209" fill="#FF7703"></path>
                    <path d="M0,0 L7.26637765,0" id="Stroke-211" stroke="#4D4D64" stroke-width="2" stroke-linecap="round" stroke-linejoin="round"></path>
                </g>
                <path d="M213.006756,178.225344 C211.426722,176.647364 212.754855,174.378714 214.75876,174.118404 C214.536732,173.730759 214.408359,173.385022 214.408359,172.870042 C214.408359,171.230006 215.730033,170.088831 217.415832,170.088831 L235.769895,170.088831 C236.23575,170.088831 236.881651,169.763241 237.172306,169.249068 C237.568727,168.549534 236.847741,167.588884 236.632172,167.347916 C235.924911,166.658053 235.218458,165.931924 234.512812,165.241255 L233.786981,164.513514 C233.023204,163.766431 232.330476,162.353663 232.485492,161.119002 C232.596103,160.245391 233.117667,159.452371 233.919391,158.955121 C235.050524,158.249946 236.670118,158.46029 237.599407,159.42497 L247.371071,169.006488 C247.512361,169.143493 247.652845,169.283722 247.794943,169.423146 C247.907168,169.534362 248.019393,169.646384 248.130811,169.758406 C248.179253,169.807567 248.226081,169.858339 248.274523,169.91153 C248.332655,169.976003 248.390786,170.042894 248.457798,170.099308 L278.51638,170.212942 L278.51638,187.818951 L249.047182,187.818951 L221.429295,187.818951 C220.580744,187.818951 219.643381,187.560253 219.03139,186.939698 C218.146507,186.04191 218.488027,184.595293 218.82551,183.789378 L217.392418,183.789378 C214.881481,183.789378 213.776992,180.855044 215.051838,178.895059 C214.887133,179.148116 213.416095,178.633943 213.006756,178.225344" id="Fill-213" fill="#F9C07D"></path>
                <path d="M295.098011,187.557915 L221.429053,187.557915 C220.580501,187.557915 219.643139,187.336289 219.031148,186.714929 C218.146265,185.817946 218.454682,184.880667 218.792165,183.818472 C218.792165,183.818472 217.396213,183.602487 217.392176,183.602487 C214.882046,183.602487 213.681479,180.942969 214.956325,178.982985 C214.79162,179.236042 213.415853,178.634024 213.006514,178.225425 C211.42648,176.647444 212.75542,174.377989 214.758518,174.118484 C214.53649,173.730839 214.408925,173.254544 214.408925,172.739565 C214.408925,171.099528 215.729791,169.827795 217.41559,169.827795 L235.77046,169.827795 C236.235508,169.827795 236.882216,169.632764 237.172064,169.11859 C237.568485,168.419057 236.848306,167.523686 236.63193,167.282717 C235.924669,166.592854 235.218215,165.898962 234.512569,165.208293 L233.787546,164.497476 C233.022962,163.749588 232.330234,162.345685 232.48525,161.111829 C232.59586,160.238218 233.117425,159.448422 233.919956,158.951172 C235.050281,158.245997 236.669876,158.457953 237.599165,159.422632 L247.370828,169.004956 C247.512926,169.142768 247.652602,169.282997 247.7947,169.42242 C247.906926,169.533636 248.019151,169.646464 248.130568,169.758487 C248.179818,169.807647 248.225839,169.85842 248.274281,169.91161 C248.332412,169.976084 248.390543,170.042974 248.457555,170.099388 L277.380161,170.099388" id="Stroke-215" stroke="#4D4D64" stroke-width="2" stroke-linecap="round" stroke-linejoin="round"></path>
                <path d="M217.991329,183.78962 L228.487208,183.78962" id="Stroke-217" stroke="#4D4D64" stroke-width="2" stroke-linecap="round" stroke-linejoin="round"></path>
                <path d="M214.761828,178.954133 L227.679833,178.954133" id="Stroke-219" stroke="#4D4D64" stroke-width="2" stroke-linecap="round" stroke-linejoin="round"></path>
                <path d="M214.761828,174.118646 L229.294584,174.118646" id="Stroke-221" stroke="#4D4D64" stroke-width="2" stroke-linecap="round" stroke-linejoin="round"></path>
                <g id="Group-226" transform="translate(277.737101, 170.089073)">
                    <path d="M0,0 L7.26637765,0" id="Fill-223" fill="#FF7703"></path>
                    <path d="M0,0 L7.26637765,0" id="Stroke-225" stroke="#4D4D64" stroke-width="2" stroke-linecap="round" stroke-linejoin="round"></path>
                </g>
                <path d="M337.688673,75.7789367 C337.688673,81.6258468 332.940499,86.3654303 327.082991,86.3654303" id="Stroke-227" stroke="#4D4D64" stroke-width="2" stroke-linecap="round" stroke-linejoin="round"></path>
                <path d="M305.992088,27.5500279 C316.609073,39.9272636 334.583669,44.2518011 350.076394,36.9872873 C356.376343,34.0336105 361.399832,29.5656202 365.10084,24.1619631" id="Stroke-229" stroke="#AA7E4F" stroke-width="2" stroke-linecap="round" stroke-linejoin="round"></path>
                <path d="M306.599153,27.5649373 C316.319144,32.1941105 327.96634,32.5962619 338.471908,27.6705121" id="Stroke-231" stroke="#AA7E4F" stroke-width="2" stroke-linecap="round" stroke-linejoin="round"></path>
                <path d="M313.261614,101.586336 L313.261614,104.004079" id="Stroke-233" stroke="#AA7E4F" stroke-width="2" stroke-linecap="round" stroke-linejoin="round"></path>
                <path d="M305.995237,107.227737 L305.995237,109.645481" id="Stroke-235" stroke="#AA7E4F" stroke-width="2" stroke-linecap="round" stroke-linejoin="round"></path>
                <path d="M321.335367,107.227737 L321.335367,109.645481" id="Stroke-237" stroke="#AA7E4F" stroke-width="2" stroke-linecap="round" stroke-linejoin="round"></path>
                <path d="M305.995237,96.7508482 L305.995237,99.1685919" id="Stroke-239" stroke="#AA7E4F" stroke-width="2" stroke-linecap="round" stroke-linejoin="round"></path>
                <path d="M321.335367,96.7508482 L321.335367,99.1685919" id="Stroke-241" stroke="#AA7E4F" stroke-width="2" stroke-linecap="round" stroke-linejoin="round"></path>
                <path d="M342.327125,101.586336 L342.327125,104.004079" id="Stroke-243" stroke="#AA7E4F" stroke-width="2" stroke-linecap="round" stroke-linejoin="round"></path>
                <path d="M327.79437,101.586336 L327.79437,104.004079" id="Stroke-245" stroke="#AA7E4F" stroke-width="2" stroke-linecap="round" stroke-linejoin="round"></path>
                <path d="M335.060747,107.227737 L335.060747,109.645481" id="Stroke-247" stroke="#AA7E4F" stroke-width="2" stroke-linecap="round" stroke-linejoin="round"></path>
                <path d="M350.400878,107.227737 L350.400878,109.645481" id="Stroke-249" stroke="#AA7E4F" stroke-width="2" stroke-linecap="round" stroke-linejoin="round"></path>
                <path d="M335.060747,96.7508482 L335.060747,99.1685919" id="Stroke-251" stroke="#AA7E4F" stroke-width="2" stroke-linecap="round" stroke-linejoin="round"></path>
                <path d="M350.400878,96.7508482 L350.400878,99.1685919" id="Stroke-253" stroke="#AA7E4F" stroke-width="2" stroke-linecap="round" stroke-linejoin="round"></path>
                <path d="M107.918626,175.058342 C100.933215,175.058342 95.2702847,170.089073 95.2702847,162.835842 L95.0006214,162.835842 C95.0006214,170.089073 89.3376911,175.259821 82.35228,175.259821" id="Stroke-255" stroke="#4256BA" stroke-width="2" stroke-linecap="round" stroke-linejoin="round"></path>
                <g id="Group-260" transform="translate(405.302398, 187.819193)">
                    <path d="M13.72538,0 L0,0" id="Fill-257" fill="#3FB4FF"></path>
                    <path d="M13.72538,0 L0,0" id="Stroke-259" stroke="#4D4D64" stroke-width="2" stroke-linecap="round" stroke-linejoin="round"></path>
                </g>
                <g id="Group-264" transform="translate(0.000000, 187.819193)">
                    <path d="M13.72538,0 L0,0" id="Fill-261" fill="#3FB4FF"></path>
                    <path d="M13.72538,0 L0,0" id="Stroke-263" stroke="#4D4D64" stroke-width="2" stroke-linecap="round" stroke-linejoin="round"></path>
                </g>
            </g>
        </g>
    </g>
</svg>